<?xml version="1.0" encoding="UTF-8"?>
<svg id="SVGRoot" width="128px" height="128px" version="1.1" viewBox="0 0 128 128" xmlns="http://www.w3.org/2000/svg" xmlns:cc="http://creativecommons.org/ns#" xmlns:dc="http://purl.org/dc/elements/1.1/" xmlns:rdf="http://www.w3.org/1999/02/22-rdf-syntax-ns#" xmlns:xlink="http://www.w3.org/1999/xlink">
 <defs>
  <linearGradient id="linearGradient3876">
   <stop stop-color="#fff" offset="0"/>
   <stop stop-color="#fff" stop-opacity=".077586" offset="1"/>
  </linearGradient>
  <linearGradient id="linearGradient3954" x1="326.55" x2="322.86" y1="679.51" y2="685.22" gradientUnits="userSpaceOnUse" xlink:href="#linearGradient3876"/>
  <linearGradient id="linearGradient3858">
   <stop stop-color="#fff" offset="0"/>
   <stop stop-color="#fff" stop-opacity="0" offset="1"/>
  </linearGradient>
  <linearGradient id="linearGradient3952" x1="351.12" x2="351.47" y1="686.2" y2="691.93" gradientUnits="userSpaceOnUse" xlink:href="#linearGradient3858"/>
  <linearGradient id="linearGradient3950" x1="123.52" x2="87.291" y1="518.38" y2="508.31" gradientUnits="userSpaceOnUse" xlink:href="#linearGradient3858"/>
  <linearGradient id="linearGradient2381" x1="5" x2="125" y1="80" y2="125" gradientUnits="userSpaceOnUse">
   <stop stop-color="#aab4ff" offset="0"/>
   <stop stop-color="#00129e" offset="1"/>
  </linearGradient>
 </defs>
 <metadata>
  <rdf:RDF>
   <cc:Work rdf:about="">
    <dc:format>image/svg+xml</dc:format>
    <dc:type rdf:resource="http://purl.org/dc/dcmitype/StillImage"/>
    <dc:title/>
   </cc:Work>
  </rdf:RDF>
 </metadata>
 <rect width="130" height="130" fill="url(#linearGradient2381)" opacity=".999" stroke-width="1.0016"/>
 <g>
  <path d="m99.691 71.641c-0.0943 0.0032-0.20261 0.03769-0.26197 0.12092l-13.331 15.951c-0.22183 0.27772-0.23682 0.33969 0.06046 0.34259l26.702-0.07055c0.36697-0.02999 0.36858-0.0116 0.13098-0.32244l-13.099-15.951c-0.0271-0.04217-0.1072-0.07287-0.20152-0.07055zm2.5594 1.4208 12.021 14.62c0.16102 0.19527 0.20026 0.20636 0.48366 0.07055l6.3379-2.9019c0.41515-0.18737 0.35762-0.22574 0.0806-0.41314zm-5.6124 0.53402c-6e-3 -0.01193-0.10336 0.06113-0.32244 0.21162l-17.452 11.487 5.4613 2.4787c0.2849 0.09393 0.37001 0.09896 0.55417-0.131l11.517-13.754c0.16234-0.18782 0.24723-0.28029 0.24182-0.29222zm5.5217 5.824c0.77143 3.3e-5 1.389 0.26598 1.8439 0.79603 0.4547 0.52741 0.71132 1.2809 0.77588 2.2571 0.0643 0.9735-0.0989 1.727-0.48367 2.2571-0.38499 0.52741-0.96166 0.78594-1.7331 0.78594-0.7741 0-1.3892-0.25853-1.844-0.78594-0.45486-0.53005-0.71149-1.2836-0.77584-2.2571-0.0646-0.97611 0.0987-1.7296 0.48365-2.2571 0.3848-0.53005 0.95898-0.796 1.7331-0.79603zm-5.0683 0.06046c0.70324 3.3e-5 1.2305 0.1539 1.5719 0.4635 0.34399 0.30964 0.46691 0.73609 0.38288 1.2897-0.0486 0.32015-0.17536 0.61866-0.38288 0.89679-0.20713 0.27552-0.60859 0.654-1.2091 1.1184l-1.4207 1.0983h2.5795l-0.16121 1.1084h-4.2723l0.17129-1.1084 2.4284-1.8943c0.2178-0.17318 0.38685-0.3385 0.5038-0.50381 0.11692-0.16531 0.1845-0.34552 0.21158-0.52396 0.0418-0.27552-0.0106-0.4971-0.17125-0.66502-0.15823-0.16792-0.39835-0.25189-0.70536-0.25192-0.23618 3.2e-5 -0.49973 0.05891-0.79603 0.16122-0.2959 0.09973-0.61691 0.24396-0.96731 0.44335l0.19147-1.2897c0.35823-0.11282 0.70591-0.19417 1.0479-0.25189 0.34239-0.06036 0.6774-0.09067 0.99752-0.0907zm5.1389 0.9774c-0.32538 0-0.54591 0.15167-0.66503 0.45341-0.11931 0.29916-0.15942 0.81702-0.11083 1.5517 0.0491 0.7426 0.15315 1.2574 0.31233 1.5618 0.1592 0.30438 0.40013 0.4635 0.7255 0.4635 0.32276 0 0.54607-0.15912 0.66502-0.4635 0.11894-0.30438 0.15993-0.81922 0.11085-1.5618-0.0486-0.7347-0.15356-1.2526-0.31238-1.5517-0.15638-0.30174-0.40011-0.45341-0.72546-0.45341zm-14.49 0.81615c0.1397 0 0.23781 0.03498 0.28212 0.11085 0.08766 0.1509-0.02319 0.44512-0.32242 0.89676-0.30017 0.45325-0.64489 0.83859-1.0378 1.1487-0.394 0.30925-0.8298 0.54195-1.2998 0.69527-0.30484 0.09944-0.51518 0.12552-0.63477 0.07052-0.12068-0.05585-0.1485-0.1953-0.08061-0.40305-0.22708 0.24015-0.46427 0.44848-0.71542 0.61466-0.25112 0.16615-0.50697 0.29519-0.77584 0.38289-0.40018 0.13052-0.64117 0.12101-0.70533-0.03031-0.06421-0.15122 0.0509-0.44135 0.33249-0.86655 0.27953-0.42207 0.59212-0.7801 0.94717-1.0681 0.35292-0.28729 0.73635-0.49352 1.1386-0.62472 0.26887-0.0877 0.45648-0.11079 0.56426-0.06046 0.1088 0.04875 0.13407 0.16915 0.0806 0.35265 0.2457-0.26572 0.5054-0.48956 0.78596-0.67508 0.27946-0.1864 0.57173-0.33382 0.8766-0.43329 0.23502-0.07664 0.42458-0.11043 0.56425-0.11082zm26.893 0.24183c0.23987 0.20072 0.4615 0.4083 0.66502 0.60457 0.20505 0.19627 0.39122 0.3856 0.55417 0.57436 0.35797 0.41465 0.54831 0.73709 0.56427 0.96731 0.0174 0.23177-0.13855 0.35046-0.46352 0.35265-0.18786 0-0.40752-0.05475-0.65492-0.15113-0.24589-0.09637-0.63652-0.29387-1.1789-0.60456l-1.2898-0.73558 1.32 1.5215-0.65496 0.01-2.1764-2.519 0.65494-0.01 2.2067 1.2595c0.19918 0.11224 0.3701 0.1984 0.5139 0.25189 0.14379 0.05353 0.26809 0.08132 0.37279 0.08061 0.16171 0 0.23811-0.06078 0.24185-0.17128 5e-3 -0.10898-0.0654-0.25224-0.22168-0.43329-0.12021-0.13923-0.28068-0.29835-0.48366-0.4635-0.20145-0.16515-0.44548-0.33598-0.72549-0.52396l0.75574-0.01zm-27.79 0.67512c-0.07477 0.0071-0.17575 0.02257-0.29223 0.06046-0.23498 0.07664-0.44312 0.18353-0.62473 0.31235-0.18369 0.12952-0.33296 0.27671-0.44334 0.44335-0.1114 0.16821-0.13563 0.28294-0.07052 0.33253 0.06507 0.04959 0.22051 0.03566 0.45341-0.04031 0.23289-0.07597 0.43999-0.18127 0.62471-0.31238 0.18264-0.13036 0.33196-0.28519 0.44335-0.45341 0.11038-0.16664 0.13454-0.27372 0.07055-0.32244-0.03308-0.02386-0.08647-0.02709-0.1612-0.02zm-2.1865 0.76579c-0.05989 0.0045-0.13754 0.01966-0.23175 0.05037-0.18843 0.06148-0.35377 0.15322-0.50379 0.26198-0.15219 0.10947-0.28002 0.23267-0.37285 0.37284-0.09489 0.14329-0.12058 0.23741-0.07052 0.28213 0.05107 0.04317 0.17641 0.03063 0.36276-0.03031 0.18843-0.06146 0.35161-0.14245 0.5038-0.25192 0.15319-0.11102 0.27791-0.2396 0.37278-0.38289 0.09284-0.14016 0.12164-0.22886 0.07056-0.27204-0.02547-0.0216-0.07113-0.03479-0.13099-0.03031zm37.362 2.5795c-0.0542 0.0039-0.13979 0.03508-0.27204 0.09067l-6.5092 2.9725c-0.23112 0.10492-0.21657 0.24631-0.13099 0.4232l7.5672 19.195-0.54409-22.359c-0.0168-0.2445-0.0203-0.32892-0.11087-0.32244zm-43.65 0.59448-0.69524 21.754 6.4084-18.822c0.09467-0.27797 0.09244-0.29203-0.10077-0.38289zm34.843 2.8213-27.306 0.07055c-0.39024-0.0058-0.37408-0.0055-0.18136 0.31234l13.865 23.387c0.23415 0.35687 0.20911 0.34565 0.45343-0.02l13.321-23.427c0.11659-0.18608 0.20008-0.31628-0.15116-0.32244zm1.0882 0.61466c-0.0252 0.01066-0.0526 0.10547-0.13098 0.25189l-13.411 23.598c-0.14633 0.24912-0.18112 0.3384 0.1713 0.28214l21.291-2.9321c0.33766-0.0771 0.32741-0.19785 0.21162-0.53405l-8.0307-20.404c-0.0531-0.19546-0.0755-0.27256-0.10075-0.26198zm-29.442 0.22168c-0.02611 0.01869-0.04959 0.11814-0.10077 0.26198l-6.8014 20.021c-0.11581 0.42536-0.12891 0.58515 0.30228 0.66503l20.344 2.9422c0.38469 0.0578 0.33549-0.13593 0.24182-0.32243l-13.845-23.356c-0.08714-0.17644-0.11507-0.23035-0.14106-0.21158zm37.02 0.26198 0.0403 0.8363-0.68516 0.44335 0.1612 3.0329 0.68517-0.67512 0.0504 0.82624-0.69527 0.66502-0.73555 0.4736-0.20153-3.8592-0.32242 0.20152 0.01 0.24183c-0.15089-0.02096-0.29795-0.01162-0.44334 0.02-0.14664 0.03473-0.28487 0.09347-0.4232 0.18137-0.20549 0.13059-0.36045 0.28329-0.46349 0.4635-0.1044 0.18108-0.15178 0.37693-0.14108 0.58441 0.0109 0.21381 0.073 0.33553 0.19144 0.37284 0.11719 0.04024 0.28492-0.0032 0.5038-0.14107l0.31239-0.20152 0.0403 0.78594-0.32244 0.20152c-0.19474 0.12372-0.34278 0.26827-0.43328 0.4232-0.0904 0.15699-0.13094 0.32901-0.12092 0.52396 9e-3 0.18024 0.0635 0.29287 0.1612 0.3325 0.0978 0.0396 0.23384 7e-3 0.40305-0.10077 0.12491-0.0794 0.24751-0.18723 0.37285-0.31234 0.12532-0.1251 0.25097-0.26714 0.3728-0.43329l0.0403 0.8867c-0.14963 0.16438-0.29462 0.30415-0.44334 0.43329-0.14871 0.12911-0.29827 0.24034-0.44336 0.3325-0.39081 0.24834-0.68292 0.3403-0.88669 0.26198-0.205-0.0754-0.32186-0.31296-0.34259-0.71539-0.0141-0.27459 0.0171-0.53086 0.10076-0.76579 0.0837-0.23286 0.21533-0.44835 0.39297-0.63481-0.20702 0.04714-0.36843 0.0058-0.48363-0.13097-0.11647-0.13381-0.17539-0.35271-0.19147-0.66502-0.0239-0.46531 0.0663-0.89148 0.28213-1.2797 0.2159-0.38612 0.54963-0.71932 0.98746-0.99752 0.15445-0.09815 0.30567-0.18266 0.4635-0.24182 0.0323-0.01256 0.0682-0.01934 0.10076-0.03031l0.01-0.01 2.0958-1.33zm-42.934 1.6323c0.10273-0.0068 0.21044 0.02676 0.3325 0.10076 0.26908 0.16299 0.46593 0.46863 0.58441 0.91691 0.0075 0.02838 0.0135 0.06155 0.01999 0.0907l0.04029-0.53405 1.451 0.87664-0.06046 0.73554-0.47355-0.28213-0.21162 2.64 0.49375 0.10076-0.05039 0.71542-0.50383-0.0907-0.5038-0.31234 0.27208-3.3654-0.41314-0.24183c0.06196 0.38599 0.0822 0.83053 0.04031 1.3401-0.05566 0.67711-0.18922 1.1489-0.39295 1.4308-0.2048 0.28323-0.45522 0.33317-0.75573 0.15116-0.0952-0.0577-0.18475-0.12801-0.27203-0.21162-0.08729-0.0836-0.17896-0.18043-0.262-0.29219l0.06047-0.75573c0.08105 0.13559 0.1673 0.24706 0.24182 0.33253 0.07434 0.0873 0.14772 0.15671 0.22168 0.20153 0.15903 0.0963 0.28974 0.0816 0.39296-0.0403 0.10306-0.12008 0.16852-0.35011 0.21161-0.68518-0.06843 0.05268-0.13682 0.0798-0.21161 0.08061-0.07498 0.0032-0.15768-0.01968-0.24183-0.07055-0.21174-0.12824-0.3643-0.35146-0.47356-0.67508-0.11025-0.32421-0.1536-0.69111-0.12092-1.0882 0.03609-0.43919 0.1353-0.7496 0.30228-0.927 0.08343-0.0878 0.17938-0.13414 0.28214-0.14107zm0.1511 0.73554c-0.03755 0.0084-0.07272 0.03514-0.10073 0.08061-0.0571 0.09221-0.09113 0.25401-0.11084 0.49374-0.01968 0.23973-0.01707 0.4369 0.02 0.58442 0.0363 0.14877 0.10721 0.25524 0.20154 0.31234 0.09336 0.05659 0.16456 0.03192 0.22166-0.06045 0.05602-0.09093 0.09113-0.25399 0.11082-0.49372 0.01968-0.23973 0.01613-0.43564-0.02-0.58442-0.03737-0.14752-0.09806-0.24573-0.19143-0.30228-0.04717-0.0287-0.09341-0.03869-0.13102-0.03031zm16.001 1.4913h1.4308v1.0681h2.6097v1.2998l-2.3578 3.5065h-1.6827v-3.708h-0.8363v-1.0983h0.8363zm4.9575 0h4.101v1.0479h-1.33v3.7987l1.3703-0.28214v1.0278l-1.3703 0.28213h-1.4409v-4.8265h-1.33zm-3.5267 2.1664v2.4686l1.6626-2.4686zm-10.126 4.4436 0.94716 1.2898-0.44335 0.29222c0.06839 0.0155 0.13171 0.0271 0.20152 0.0504 0.55643 0.18769 1.0684 0.60267 1.5316 1.2293 0.51051 0.69072 0.71639 1.3434 0.61463 1.9749-0.10544 0.63049-0.5148 1.1786-1.2192 1.6424-0.72196 0.47534-1.4485 0.63391-2.1865 0.4635-0.74174-0.1715-1.3947-0.64932-1.9648-1.4208-0.18069-0.24447-0.34471-0.48475-0.48365-0.73554-0.13897-0.25079-0.25853-0.50926-0.36274-0.77588l0.8061-0.53402c0.07886 0.2833 0.17571 0.53944 0.28212 0.76579 0.10442 0.22764 0.22238 0.43484 0.36274 0.62472 0.30174 0.40824 0.63171 0.66125 0.98745 0.76578 0.35378 0.10583 0.72355 0.0625 1.1184-0.14106-0.21137-0.0937-0.40249-0.2209-0.58441-0.37283-0.18387-0.15065-0.35423-0.33818-0.51386-0.55418-0.40176-0.54356-0.6003-1.0674-0.58443-1.5719 0.01414-0.50684 0.23152-0.90015 0.65495-1.1789 0.11708-0.0771 0.24004-0.13519 0.36273-0.18137l-0.65492-0.8867zm25.714 1.8641 1.0983 0.8464 1.7532 4.1111-0.87661 1.2998-3.1639-2.4183-0.43328 0.64487-0.93708-0.71539 0.44336-0.65497-0.91693-0.69524 0.75571-1.1084 0.90684 0.70533zm-24.959 1.0177c-0.1707 0.0113-0.3524 0.0854-0.54411 0.21161-0.25559 0.16828-0.39592 0.34962-0.43326 0.55417-0.04108 0.20349 0.02256 0.433 0.20151 0.67512 0.17719 0.23973 0.37623 0.37686 0.59449 0.41311 0.21454 0.0352 0.44973-0.0332 0.70532-0.20153 0.25564-0.16828 0.4023-0.35071 0.44336-0.55417 0.03737-0.20455-0.0245-0.43538-0.20151-0.67511-0.17896-0.24209-0.37995-0.37793-0.59449-0.41311-0.0546-9e-3 -0.1144-0.0139-0.17131-0.01zm25.392 0.43329-0.86653 1.2796 2.0958 1.6122zm-32.979 8.071 19.961 11.326c0.25846 0.15664 0.31885 0.0996 0.28213-0.17129l-0.4232-7.94c-0.0115-0.25624-0.0462-0.36058-0.31233-0.40305zm41.272 0.02-20.263 2.8012c-0.26737 0.0394-0.2191 0.17066-0.22168 0.36274l0.43329 8.0811c0.0223 0.2452 0.0151 0.33311 0.31234 0.18137zm-12.686 3.4863 1.4812 1.6424 1.1587-0.68517 0.32243 0.36273-3.043 1.8036-0.4937 0.29222-3.043 1.8036-0.32244-0.35267 1.1588-0.68518-1.1789-1.2897-1.0882 0.79602-0.32244-0.35267 1.0882-0.78593 1.2393-0.73557 1.4913 1.6424 0.65495-0.39298 0.49372-0.29221 0.65496-0.39296-1.1688-1.2897-1.0983 0.79602-0.31232-0.35268 1.0882-0.796zm-13.321 0.24183c0.39207 0.0178 0.74609 0.15332 1.0782 0.40304 0.36868 0.27727 0.52479 0.57631 0.46352 0.90686-0.0613 0.33056-0.33496 0.66105-0.81619 0.98747-0.28623 0.19415-0.58198 0.32678-0.87661 0.41311l0.34258 0.26199-0.77588 0.52395-0.68516-0.51388 0.2519-0.17129c-0.42913-0.0281-0.81674-0.16851-1.1688-0.43328-0.13258-0.0997-0.25285-0.19662-0.35268-0.30228-0.10114-0.10476-0.18724-0.21703-0.26197-0.33252l0.55421-0.37281c0.05868 0.12636 0.12485 0.2328 0.20151 0.33251 0.07797 0.0988 0.16851 0.19419 0.27204 0.27206 0.21716 0.16332 0.45712 0.24689 0.70533 0.2519 0.24953 4e-3 0.50311-0.0774 0.77588-0.23175-0.15272-0.0192-0.29259-0.0503-0.42322-0.10076-0.13064-0.0504-0.24911-0.11606-0.36271-0.20152-0.28917-0.21744-0.43304-0.46093-0.43328-0.71542 0.0032-0.25441 0.1519-0.47741 0.44333-0.67509 0.32216-0.21852 0.67728-0.31893 1.0681-0.30229zm0.17131 0.60457c-0.15263 0.0113-0.3099 0.0736-0.48365 0.19145-0.17512 0.11878-0.27846 0.23432-0.30228 0.34258-0.02258 0.10738 0.03367 0.20638 0.1612 0.30229 0.12753 0.0959 0.26181 0.14151 0.41312 0.13099 0.1526-0.0115 0.31864-0.0827 0.49373-0.20152 0.17378-0.11787 0.26838-0.22424 0.29221-0.33251 0.0239-0.10828-0.0235-0.21645-0.15113-0.31238-0.12756-0.0959-0.27058-0.13233-0.4232-0.1209z" fill="#add9be"/>
 </g>
 <g>
  <g transform="matrix(.49577 0 0 .49577 -119.42 -249.12)">
   <g transform="rotate(.059131 118451 -52645)">
    <g fill="#8f0000" stroke="#cd0000">
     <ellipse transform="matrix(.38456 .60266 -1.3835 .1321 1022 543.21)" cx="103.04" cy="512.69" rx="21.213" ry="21.466" opacity=".89224"/>
     <path d="m337.3 684.34 14.41 30.738 14.736-30.172c-9.656 1.7526-19.491 1.2519-29.146-0.56635z" fill-rule="evenodd" opacity=".89224" stroke-width="1px"/>
     <path d="m351.21 717.1 3.0304 24.244 18.183-27.527c-5.7491 1.9756-13.495 2.6202-21.213 3.283z" fill-rule="evenodd" opacity=".89224" stroke-width="1px"/>
    </g>
    <g fill-rule="evenodd" stroke="#cd0000" stroke-width="1px">
     <path d="m351.57 716.99 1.9368 25.604-23.765-28.076c5.8203 1.755 14.09 2.1037 21.828 2.4717z" fill="#d52020"/>
     <path d="m352.22 716.09 14.708-30.978 22.162 22.139c-7.2914 2.9873-24.295 11.287-36.871 8.8388z" fill="#900" opacity=".89224"/>
     <path d="m367.02 684.7c10.714-1.9565 14.915-5.523 16.607-10.804l5.625 32.679z" fill="#be0e09" opacity=".89224"/>
     <path d="m384.52 677.2 15.268 5.3571c1.1223 2.4926 3.329 7.5705 1.5178 12.232-2.0858 5.3684-6.2295 9.3309-11.339 12.5l-5.8929-30.357" fill="#8f0000" opacity=".89224"/>
     <path d="m381.4 668.45c1.4942 1.9758 2.074 3.9267 2.8571 8.0357l15.804 5.625z" fill="#8f0000" opacity=".80172"/>
     <path d="m352.06 716.31-14.53-31.514-28.412 19.996c4.8458 4.4483 30.366 13.966 42.942 11.517z" fill="#a60000" opacity=".89224"/>
     <path d="m336.96 684.47c-10.214-3.7807-14.985-7.4845-15.738-12.978l-11.887 32.526z" fill="#8f0000" opacity=".89224"/>
     <path d="m322.88 668.14-18.214 15.625c-4.9649 10.529 3.3555 19.115 3.9286 20.71z" fill="#ad0f0f" opacity=".89224"/>
     <path d="m308.38 704.78 45.253 38.404-23.929-29.286c-8.2431-1.9042-14.479-5.8156-21.324-9.118z" fill="#8f0000" opacity=".89224"/>
     <path d="m389.78 706.99-36.513 36.724 18.929-29.464c6.2875-2.4686 11.951-4.955 17.585-7.2602z" fill="#900" opacity=".76724"/>
    </g>
    <ellipse transform="matrix(.38456 .60266 -1.3835 .1321 1022.8 542.72)" cx="103.04" cy="512.69" rx="21.213" ry="21.466" fill="url(#linearGradient3950)" opacity=".40517"/>
    <path d="m337.97 684.95 14.41 30.738 14.736-30.172c-9.656 1.7526-19.491 1.2519-29.146-0.56635z" fill="url(#linearGradient3952)" fill-rule="evenodd" opacity=".89224"/>
    <path d="m336.67 684.79c-10.214-3.7807-14.985-7.4845-15.738-12.978l-11.887 32.526z" fill="url(#linearGradient3954)" fill-rule="evenodd" opacity=".89224"/>
   </g>
   <g transform="matrix(1 -.001032 -.001032 -1 -53.321 1375.4)" opacity=".38362">
    <g fill="#8f0000" stroke="#cd0000">
     <ellipse transform="matrix(.38456 .60266 -1.3835 .1321 1022 543.21)" cx="103.04" cy="512.69" rx="21.213" ry="21.466" opacity=".89224"/>
     <path d="m337.3 684.34 14.41 30.738 14.736-30.172c-9.656 1.7526-19.491 1.2519-29.146-0.56635z" fill-rule="evenodd" opacity=".89224" stroke-width="1px"/>
     <path d="m351.21 717.1 3.0304 24.244 18.183-27.527c-5.7491 1.9756-13.495 2.6202-21.213 3.283z" fill-rule="evenodd" opacity=".89224" stroke-width="1px"/>
    </g>
    <g fill-rule="evenodd" stroke="#cd0000" stroke-width="1px">
     <path d="m351.57 716.99 1.9368 25.604-23.765-28.076c5.8203 1.755 14.09 2.1037 21.828 2.4717z" fill="#d52020" opacity="1"/>
     <path d="m352.22 716.09 14.708-30.978 22.162 22.139c-7.2914 2.9873-24.295 11.287-36.871 8.8388z" fill="#900" opacity=".89224"/>
     <path d="m367.02 684.7c10.714-1.9565 14.915-5.523 16.607-10.804l5.625 32.679z" fill="#be0e09" opacity=".89224"/>
     <path d="m384.52 677.2 15.268 5.3571c1.1223 2.4926 3.329 7.5705 1.5178 12.232-2.0858 5.3684-6.2295 9.3309-11.339 12.5l-5.8929-30.357" fill="#8f0000" opacity=".89224"/>
     <path d="m381.4 668.45c1.4942 1.9758 2.074 3.9267 2.8571 8.0357l15.804 5.625z" fill="#8f0000" opacity=".80172"/>
     <path d="m352.06 716.31-14.53-31.514-28.412 19.996c4.8458 4.4483 30.366 13.966 42.942 11.517z" fill="#a60000" opacity=".89224"/>
     <path d="m336.96 684.47c-10.214-3.7807-14.985-7.4845-15.738-12.978l-11.887 32.526z" fill="#8f0000" opacity=".89224"/>
     <path d="m322.88 668.14-18.214 15.625c-4.9649 10.529 3.3555 19.115 3.9286 20.71z" fill="#ad0f0f" opacity=".89224"/>
     <path d="m308.38 704.78 45.253 38.404-23.929-29.286c-8.2431-1.9042-14.479-5.8156-21.324-9.118z" fill="#8f0000" opacity=".89224"/>
     <path d="m389.78 706.99-36.513 36.724 18.929-29.464c6.2875-2.4686 11.951-4.955 17.585-7.2602z" fill="#900" opacity=".76724"/>
    </g>
    <ellipse transform="matrix(.38456 .60266 -1.3835 .1321 1022.8 542.72)" cx="103.04" cy="512.69" rx="21.213" ry="21.466" fill="url(#linearGradient3950)" opacity=".40517"/>
    <path d="m337.97 684.95 14.41 30.738 14.736-30.172c-9.656 1.7526-19.491 1.2519-29.146-0.56635z" fill="url(#linearGradient3952)" fill-rule="evenodd" opacity=".89224"/>
    <path d="m336.67 684.79c-10.214-3.7807-14.985-7.4845-15.738-12.978l-11.887 32.526z" fill="url(#linearGradient3954)" fill-rule="evenodd" opacity=".89224"/>
   </g>
  </g>
  <path d="m109.73 88.776c-1.2738 0.09029-2.3296 0.25856-5.005 0.79123-2.8528 0.56695-3.89 0.70089-5.441 0.70089-1.4264 0.0025-2.0898-0.08719-4.3634-0.59186-1.2987-0.28659-1.6195-0.352-2.1646-0.433-0.89385-0.13706-2.1023-0.29593-2.8809-0.37381-1.4482-0.14952-2.9151-0.13083-5.0766 0.06226-2.7252 0.24298-3.6626 0.27725-4.9489 0.19625l-0.29275-0.02184 0.01873 0.47972c0.05296 1.2242 0.29275 2.8628 0.51076 3.4609 0.11831 0.3302 0.1931 0.43611 0.63224 0.866 0.39242 0.38626 0.39866 0.3925 0.47651 0.63859 0.04366 0.13706 0.13081 0.44545 0.1931 0.68532 0.24604 0.95011 0.70075 2.1774 1.3548 3.6447 0.4298 0.97192 0.58552 1.2647 0.82534 1.5638 1.1524 1.4392 3.8806 2.2958 6.6774 2.0996 1.3455-0.0964 2.1988-0.29282 2.9992-0.69155 1.4576-0.72892 2.5601-1.922 3.6533-3.953 0.43914-0.81305 0.54503-1.0841 0.81598-2.0871 0.22112-0.82239 0.32391-1.1277 0.5139-1.5171 0.26473-0.55137 0.37996-0.59809 1.3018-0.55137 0.57616 0.03112 0.58552 0.03112 0.71944 0.12156 0.33636 0.23362 0.6229 0.77876 0.91566 1.7444 0.32078 1.0622 0.52634 1.5949 0.91876 2.3986 0.91877 1.8846 2.0774 3.059 3.7124 3.7661 2.339 1.0124 5.198 1.003 7.3283-0.025 0.75683-0.36446 1.3361-0.77566 1.8531-1.3146 0.65715-0.68531 1.0994-1.4516 1.4607-2.5326 0.13081-0.3925 0.20868-0.67286 0.48587-1.7631 0.2803-1.1152 0.42356-1.5887 0.55437-1.8317 0.10904-0.2056 0.31457-0.40497 0.59176-0.57006 0.2803-0.16822 0.35505-0.24922 0.50455-0.54203 0.45468-0.9065 0.90318-2.7226 0.84712-3.4484-0.0218-0.27723-0.1183-0.49218-0.26473-0.59187-0.0811-0.05297-0.16818-0.06846-0.46716-0.08718-0.40178-0.02804-1.495 0-1.9839 0.04677-0.17132 0.01873-0.64783 0.04058-1.0589 0.04986-0.58864 0.01562-0.82533 0.0091-1.1056-0.02803-0.19622-0.02804-0.71634-0.09973-1.1524-0.15887-0.43602-0.05917-1.0029-0.13084-1.2614-0.15887-0.56373-0.06226-1.8407-0.0841-2.3982-0.04367zm-18.126 1.2896c1.3455 0.15887 2.9089 0.61367 3.7374 1.0809 0.54814 0.30839 0.96237 0.67909 1.196 1.0654 0.63535 1.0591 0.34882 2.6914-0.93123 5.2988-0.43914 0.89403-0.80665 1.4205-1.3984 2.0061-0.95926 0.95011-2.1645 1.5295-3.6782 1.7694-0.49832 0.0779-1.8718 0.0779-2.4199 0-0.48274-0.0685-1.0963-0.19313-1.4295-0.28658-1.171-0.34266-2.1272-1.1775-2.6878-2.355-0.19621-0.41119-0.48898-1.2959-0.71322-2.1619-0.38308-1.4672-0.53881-3.2086-0.35816-4.0185 0.26161-1.1868 1.3517-1.8628 3.5131-2.1774 0.4952-0.07479 1.6694-0.19936 2.1957-0.23675 0.26473-0.01873 0.53881-0.03733 0.60732-0.04367 0.29898-0.02804 1.987 0.01292 2.367 0.05917zm18.796-0.0025c2.6411 0.23675 3.7498 0.49842 4.6032 1.0872 0.74747 0.51398 1.0091 1.1931 0.95926 2.4983-0.0468 1.299-0.31146 2.6416-0.82845 4.196-0.30834 0.93142-0.60733 1.461-1.1306 2.0092-0.65404 0.68221-1.3299 1.0435-2.3857 1.2741-0.925 0.19935-2.0774 0.28035-2.9183 0.20246-1.8874-0.17754-3.457-0.97812-4.5689-2.3332-0.55748-0.68531-1.1679-1.8566-1.6943-3.2553-0.43603-1.1651-0.58241-2.1837-0.41423-2.8846 0.30211-1.2554 1.5822-2.0653 4.1267-2.6167 0.42045-0.09029 1.2832-0.20872 1.6974-0.23364 0.42979-0.02493 2.0338 0.01292 2.5539 0.05606z"/>
 </g>
 <g>
  <g transform="translate(3.3297 4.7735)">
   <g>
    <path d="m74.52 87.42c-0.03236-0.09615-0.14865-0.19698-0.2585-0.22409-0.10983-0.02707-0.22362-0.13556-0.25282-0.24093-0.02923-0.10532-0.10511-0.1916-0.16877-0.1916-0.06369 0-0.22364-0.16918-0.35556-0.37594-0.13193-0.20678-0.2949-0.43243-0.36217-0.50147-0.06723-0.06907-0.12228-0.17008-0.12228-0.22452 0-0.05445-0.08807-0.09902-0.19571-0.09902-0.11455 0-0.19571-0.06163-0.19571-0.14857 0-0.11235-0.05963-0.13441-0.24465-0.09056-0.18054 0.04285-0.24464 0.0212-0.24464-0.08239 0-0.07724-0.0401-0.14029-0.08925-0.14029-0.13801 0-0.25046-0.7707-0.11848-0.81221 0.15925-0.05017 0.13515-0.29631-0.02897-0.29631-0.18191 0-0.48527-0.86425-0.40685-1.1592 0.04378-0.1648 0.02032-0.2265-0.08623-0.2265-0.08047 0-0.21853-0.10388-0.3067-0.23094-0.1339-0.19289-0.23717-0.23095-0.62692-0.23095-0.50889 0-0.58309-0.0887-0.58596-0.70052-7.87e-4 -0.1572-0.05622-0.29178-0.12373-0.30034-0.06723-0.0086-0.28746-0.04083-0.48929-0.07164-0.2967-0.04543-0.36696-0.02766-0.36696 0.09242 0 0.08181-0.06435 0.14867-0.14299 0.14867-0.07863 0-0.22174 0.07566-0.31803 0.16824-0.09634 0.09256-0.38378 0.2413-0.63887 0.33059-0.2551 0.08928-0.48889 0.20064-0.51953 0.24746-0.03066 0.04685-0.14119 0.08511-0.24565 0.08511-0.10446 0-0.18995 0.03368-0.18995 0.07495 0 0.04128-0.22277 0.12882-0.49502 0.19468-0.27306 0.06606-0.5469 0.19815-0.6107 0.29459-0.06356 0.09615-0.17113 0.17482-0.23891 0.17482-0.06776 0-0.12319 0.03798-0.12319 0.08426s-0.18716 0.11263-0.4159 0.14745c-0.22874 0.03482-0.50502 0.11636-0.61397 0.18132-0.10892 0.06505-0.4392 0.2142-0.73393 0.33159-0.29472 0.11736-0.64088 0.28887-0.76924 0.38106-0.12831 0.09215-0.3155 0.16761-0.4159 0.16761-0.10038 0-0.18252 0.03698-0.18252 0.08211s-0.18714 0.08197-0.41588 0.08181c-1.3612-9.17e-4 -3.1977 0.10833-3.4495 0.20523-0.32315 0.12424-3.5701 0.0536-3.6667-0.07982-0.07446-0.10287-0.39442-0.20374-0.39442-0.12424 0 0.05731-0.43923 0.06248-2.2263 0.02622-0.25901-0.0057-0.32014-0.045-0.32938-0.2143-0.0092-0.15641-0.02242-0.16785-0.05609-0.04614-0.02464 0.08883-0.1076 0.16165-0.18436 0.16165-0.07682 0-0.14309-0.0728-0.14734-0.16165-0.0052-0.09658-0.02766-0.11522-0.05714-0.04614-0.07956 0.18624-0.38594 0.13312-0.63371-0.10991-0.20904-0.20503-0.28379-0.22061-0.82834-0.1726-0.39599 0.03497-0.62172 0.01733-0.66698-0.05173-0.03761-0.05746-0.15545-0.10446-0.26182-0.10446-0.10643 0-0.3075-0.07065-0.44699-0.15687-0.17737-0.10977-0.522-0.16744-1.1464-0.19205-1.0424-0.04113-2.0182-0.32993-2.0182-0.59748 0-0.10059-0.07433-0.16214-0.19571-0.16214-0.1076 0-0.1905-0.03109-0.18413-0.06921 0.0065-0.03811 0.0052-0.13169-0.0013-0.20784-0.01179-0.12324-0.02345-0.12324-0.10668 0-0.06632 0.09817-0.13292 0.11162-0.22851 0.04614-0.07418-0.05072-0.32868-0.21301-0.56547-0.36046-0.2368-0.14744-0.53313-0.3714-0.65851-0.49767-0.21161-0.2131-0.21389-0.22611-0.03185-0.18116 0.13916 0.03439 0.18112 0.01149 0.14432-0.0791-0.02857-0.07022-0.0962-0.10174-0.1504-0.07008-0.05414 0.03167-0.13697 1.86e-4 -0.18396-0.06979-0.06762-0.10075-0.08573-0.09343-0.08689 0.03439-8.77e-4 0.09958-0.07666 0.16165-0.19721 0.16165-0.1076 0-0.19572-0.04157-0.19572-0.09242 0-0.05088-0.05938-0.09242-0.13183-0.09242-0.07247 0-0.17962-0.09357-0.23802-0.20784-0.08454-0.16549-0.10747-0.17491-0.11285-0.04614-0.0039 0.11034-0.08637 0.16167-0.25786 0.16167-0.20455 0-0.23997 0.03338-0.19067 0.18012 0.06605 0.1966-0.15545 0.67554-0.45648 0.98679-0.10603 0.10963-0.19286 0.33488-0.19584 0.50806-0.0025 0.17111-0.13226 0.56648-0.28737 0.8786-0.15508 0.3121-0.28198 0.59666-0.28198 0.63237 0 0.03569-0.08439 0.17676-0.18748 0.31345-0.22706 0.30102-0.59807 1.3042-0.48233 1.3042 0.13028 0 0.09816 0.16332-0.1131 0.57607-0.1076 0.21033-0.19571 0.44848-0.19571 0.52922 0 0.08082-0.13663 0.26001-0.30363 0.39835-0.28442 0.2356-0.36186 0.25152-1.2232 0.25152-0.73817 0-0.91958-0.02636-0.91958-0.13398 0-0.07365-0.07666-0.17446-0.1703-0.22394-0.14948-0.07896-0.17-0.24936-0.16781-1.3933 0.0025-1.2813 0.0065-1.3068 0.25242-1.5081 0.20616-0.1689 0.24224-0.26553 0.20596-0.55175-0.06133-0.48353 0.04298-0.9247 0.27368-1.1585 0.17748-0.17984 0.1983-0.34566 0.22237-1.7713 0.01454-0.86511-0.0065-1.5729-0.0477-1.5729-0.11664 0-1.2536-1.0778-1.2536-1.1884 0-0.05445-0.06947-0.07394-0.15433-0.04313-0.16473 0.05961-1.1178-0.74828-1.1178-0.9476 0-0.05917-0.06462-0.15828-0.14367-0.22018-0.07902-0.0619-0.13405-0.16052-0.12228-0.21916 0.0118-0.05861-0.06672-0.09544-0.17438-0.08168-0.13386 0.01705-0.43541-0.20421-0.95412-0.70009-0.41712-0.39877-0.7584-0.7778-0.7584-0.8423 0-0.06448-0.16094-0.25249-0.35767-0.41774-0.32124-0.26984-0.35177-0.3348-0.29972-0.63756 0.04744-0.27606 0.02805-0.33732-0.1072-0.33825-0.22051-0.0014-0.58725-0.55169-0.66203-0.99318l-0.06029-0.3555-0.483 0.01009c-0.32654 0.0071-0.46904-0.02394-0.43993-0.09559 0.02373-0.05817 0.0039-0.16449-0.0443-0.23609-0.05989-0.08928-0.08782-0.01676-0.08886 0.23108-0.0012 0.28937-0.06423 0.41412-0.31668 0.6269-0.33092 0.27888-0.38637 0.29826-1.2506 0.43661-0.29602 0.04743-0.73274 0.13255-0.9705 0.18912-0.23777 0.05659-0.48733 0.08298-0.55459 0.05861-0.06723-0.02436-0.14765 0.01806-0.17865 0.09429-0.03093 0.07623-0.13372 0.12668-0.22828 0.11191-0.0945-0.01477-0.22696 0.0057-0.29423 0.04572-0.06723 0.03983-0.12228 0.04916-0.12228 0.02078 0-0.02837-0.08899 0.0324-0.19776 0.13499-0.1661 0.1568-0.31416 0.18457-0.92442 0.1734-0.65751-0.01149-0.73054-0.03196-0.76749-0.20977-0.0321-0.15479-0.04364-0.14258-0.05413 0.0576-0.0079 0.15863-0.06841 0.25404-0.16011 0.25404-0.08074 0-0.14674-0.03123-0.14667-0.06921 1.29e-4 -0.03813-0.18703-0.06924-0.41583-0.06924h-0.41604l0.01179-0.34641c0.0065-0.19053-0.02687-0.34642-0.07339-0.34642-0.09724 0-0.11206-0.86354-0.02045-1.1867 0.05151-0.18153 0.10707-0.20817 0.34169-0.16386 0.35092 0.0662 0.69894-0.07809 0.82139-0.34078 0.05165-0.11062 0.1817-0.21692 0.28907-0.23604 0.10734-0.01907 0.3892-0.16075 0.62626-0.31472 0.23708-0.15397 0.56758-0.28407 0.73443-0.28909 0.38056-0.01149 0.55229-0.15856 0.48188-0.41275-0.03408-0.1228-0.0092-0.19683 0.06685-0.19683 0.06671 0 0.38516-0.16628 0.70756-0.3695 0.3224-0.20324 0.64207-0.36951 0.71039-0.36951 0.06829 0 0.14878-0.08857 0.17878-0.19696 0.03971-0.14347 0.10839-0.18366 0.25271-0.14804 0.10904 0.02694 0.18865 0.02207 0.17704-0.01149-0.0118-0.03295 0.0092-0.05976 0.04562-0.05976 0.0367 0 0.16877-0.14272 0.29356-0.31733 0.12477-0.17452 0.41202-0.40316 0.63824-0.50806 0.2438-0.11306 0.4132-0.25659 0.4159-0.35241 0.0025-0.08883 0.06514-0.16165 0.13912-0.16165 0.15066 0 0.25688-0.39123 0.25688-0.94609 0-0.32325 0.02412-0.36277 0.19571-0.32041 0.1076 0.02651 0.19572 0.01009 0.19572-0.0354 0-0.04599-0.06394-0.08368-0.14219-0.08368-0.16638 0-0.34577-0.53791-0.34655-1.0392-3.94e-4 -0.24611-0.04299-0.34641-0.14734-0.34641-0.14772 0-0.15346-0.03194-0.2036-1.1327-0.01044-0.24193-0.09083-0.54184-0.17731-0.66648-0.31847-0.45881-0.13452-2.1153 0.27814-2.5049 0.10498-0.09903 0.14718-0.10216 0.18505-0.01434 0.027 0.06305 0.05256 0.02106 0.05675-0.09313 0.0039-0.11434 0.06055-0.20785 0.12516-0.20785 0.09135 0 0.09135-0.02465 0-0.11091-0.06462-0.06104-0.11744-0.20586-0.11744-0.32199 0-0.37505 0.23262-1.0452 0.36281-1.0452 0.06959 0 0.12648-0.06234 0.12648-0.13857 0-0.07623-0.04404-0.13857-0.09791-0.13857-0.05386 0-0.09791-0.04973-0.09791-0.11048 0-0.1337 0.46898-0.80079 0.71008-1.01 0.10106-0.08769 0.14793-0.21351 0.11218-0.3014-0.03368-0.08297-0.01861-0.20226 0.03354-0.26513 0.1587-0.19106 0.41625-1.0064 0.41625-1.3179 0-0.40139 0.18699-0.8749 0.34548-0.8749 0.07183 0 0.15857-0.08312 0.19274-0.18475 0.03421-0.1016 0.11992-0.18475 0.19064-0.18475 0.07065 0 0.25106-0.22863 0.40084-0.50807 0.14978-0.27945 0.30915-0.50808 0.35417-0.50808 0.04509 0 0.08191-0.07567 0.08191-0.16799 0-0.27505 0.28827-1.1071 0.42988-1.2408 0.07235-0.06821 0.16351-0.21947 0.20271-0.33606 0.04601-0.13656 0.12883-0.19782 0.23309-0.17214 0.1207 0.02966 0.16729-0.02995 0.18333-0.23446 0.02909-0.37039 0.25072-0.66741 0.61017-0.81761 0.22381-0.09357 0.29797-0.18537 0.29797-0.36909 0-0.16074 0.15934-0.41427 0.46482-0.73956 0.25565-0.27224 0.49537-0.50804 0.53272-0.52402 0.03735-0.01605 0.04679-0.0811 0.02096-0.14464-0.07497-0.18447 0.19199-0.58409 0.7064-1.0574 0.26232-0.24136 0.55502-0.55154 0.65046-0.68929 0.1319-0.19041 0.25257-0.25045 0.50328-0.25045 0.19857 0 0.35155-0.0536 0.3845-0.1347 0.04744-0.11665 0.21269-0.2365 1.0242-0.74295 0.37816-0.236 0.5379-0.46735 0.58291-0.84418 0.04613-0.38693 0.06121-0.40291 0.37788-0.40291 0.18138 0 0.32978-0.04154 0.32978-0.09242 0-0.05072 0.04064-0.09242 0.09031-0.09242 0.09149 0 0.69253-0.53152 0.69253-0.6125 0-0.13527 0.56388-0.68078 0.7037-0.68078 0.09096 0 0.19269-0.04155 0.22596-0.09242 0.03329-0.05072 0.21062-0.09242 0.39413-0.09242 0.271 0 0.32193-0.02894 0.27117-0.15373-0.04364-0.10732-0.02581-0.13241 0.05885-0.08296 0.06672 0.03899 0.1595 0.16006 0.20615 0.26918 0.08336 0.19504 0.08494 0.1947 0.09096-0.02021 0.0052-0.17201 0.04797-0.20831 0.20191-0.1703 0.1076 0.02651 0.19571 0.01605 0.19571-0.02322 0-0.03942 0.16514-0.09559 0.36697-0.1251 0.20184-0.02938 0.46604-0.08138 0.58714-0.11535 0.17271-0.04842 0.22067-0.02465 0.22241 0.11062 0.0013 0.11907 0.04941 0.08211 0.15473-0.11951 0.13418-0.2568 0.23362-0.30919 0.82703-0.43569 0.37098-0.0791 0.85005-0.22832 1.0646-0.33165 0.21455-0.10332 0.54336-0.18785 0.7307-0.18785 0.18735 0 0.36785-0.04154 0.40112-0.09242 0.03329-0.05072 0.14732-0.09242 0.25349-0.09242 0.10616 0 0.21844-0.06262 0.24952-0.139 0.05137-0.12625 0.39676-0.31022 0.84254-0.44866 0.09595-0.02982 0.17184-0.14586 0.17258-0.26393 0.0025-0.3452 0.11101-0.62644 0.24249-0.62644 0.06775 0 0.15088-0.13083 0.18476-0.29085 0.06449-0.30405 0.60803-0.90737 0.81911-0.90906 0.06723-5.59e-4 0.12228-0.03625 0.12228-0.07925 0-0.04299 0.08808-0.17411 0.19571-0.29127 0.1076-0.11721 0.19572-0.28661 0.19572-0.37656 0-0.08999 0.10826-0.28503 0.24068-0.43353 0.22366-0.25093 0.24304-0.3543 0.27417-1.462 0.03356-1.1929 0.17151-1.7159 0.47824-1.8124 0.06685-0.02106 0.11036-0.18892 0.10223-0.3943-0.0079-0.1967 0.0502-0.64948 0.12897-1.0062 0.10249-0.46404 0.11271-0.66637 0.03578-0.71124-0.0679-0.03955-0.08598-0.22833-0.04915-0.51282 0.03211-0.24756 0.0865-0.79306 0.12097-1.2122 0.04613-0.56171 0.09856-0.76211 0.19903-0.76211 0.09595 0 0.11848-0.0672 0.07602-0.2272-0.05255-0.19788 0.0658-0.63279 0.35299-1.297 0.04392-0.1016 0.10446-0.28867 0.1344-0.41569 0.03002-0.12696 0.14286-0.36604 0.25081-0.53116 0.2362-0.36122 0.60116-0.40296 0.82972-0.09486 0.1717 0.23141 0.20256 0.53371 0.05453 0.53371-0.05386 0-0.09791 0.06234-0.09791 0.13857s0.06605 0.13857 0.14679 0.13857c0.08074 0 0.14679 0.03855 0.14679 0.08584 0 0.04715 0.07707 0.15823 0.17124 0.24677 0.23927 0.22495 0.75798 2.362 0.68587 2.8258-0.02581 0.16564 0.0039 0.25962 0.08113 0.25962 0.07995 0 0.14527 0.23941 0.19101 0.70015 0.0443 0.44669 0.11652 0.71722 0.19954 0.74726 0.19155 0.06936 0.53051 0.65304 0.53051 0.91348 0 0.13584 0.05662 0.22565 0.14236 0.22565 0.18151 0 0.27841 0.47517 0.23409 1.1478-0.0232 0.35169 0.0025 0.5152 0.08126 0.51511 0.20936-1.73e-4 0.61278 0.97936 0.55109 1.3382-0.03918 0.2283-0.019 0.32444 0.06841 0.32444 0.09253 0 0.11061 0.14143 0.07103 0.55426-0.0401 0.417-0.02201 0.55426 0.07299 0.55426 0.25886 0 0.46689 0.46514 0.41892 0.93657-0.02517 0.24699-0.0079 0.44908 0.03775 0.44908 0.04586 0 0.08349 0.05719 0.08349 0.12696 0 0.23835 1.2186 0.3804 1.8465 0.21525 0.18476-0.04856 0.3568-0.05159 0.39143-0.0071 0.09122 0.11822 0.30641 0.141 0.30641 0.03239 0-0.10934 0.48001-0.10174 0.9965 0.01562 0.25927 0.0589 0.36912 0.13771 0.39143 0.28066 0.03197 0.20497 0.22215 0.28955 0.88726 0.39456 0.30553 0.0483 0.36697 0.09515 0.36697 0.2805 0 0.18379 0.06355 0.23382 0.36451 0.28712 0.20048 0.03553 0.4238 0.1205 0.49628 0.18894 0.07247 0.06835 0.23104 0.12438 0.35236 0.12438 0.12137 0 0.32402 0.10388 0.45043 0.23094 0.12647 0.12696 0.2843 0.23094 0.35087 0.23094 0.06658 0 0.22679 0.11865 0.35606 0.26367 0.1911 0.2144 0.29331 0.2556 0.54692 0.22046 0.17666-0.02451 0.31189-3e-3 0.31189 0.05102 0 0.05188 0.09502 0.07079 0.21101 0.04214 0.14352-0.0354 0.18884-0.01819 0.1417 0.05374-0.04521 0.06907-0.01559 0.08641 0.08519 0.04987 0.09542-0.03453 0.24531 0.03654 0.39184 0.1858 0.16805 0.17117 0.33641 0.24177 0.5765 0.24177 0.18651 0 0.56693 0.10805 0.84536 0.24002 0.39691 0.18819 0.49571 0.278 0.45752 0.41584-0.0278 0.1003-0.0079 0.15192 0.04666 0.12022 0.05242-0.03053 0.11952 0.03167 0.14907 0.13842 0.02961 0.10676 0.09987 0.19405 0.15625 0.19405 0.05635 0 0.27142 0.07035 0.47788 0.15634 0.30096 0.12538 0.37539 0.20553 0.37539 0.40438 0 0.13642 0.06605 0.29979 0.14679 0.36304 0.08074 0.0632 0.14679 0.19305 0.14679 0.28844 0 0.09544 0.06305 0.17343 0.14018 0.17343 0.07707 0 0.16814 0.08312 0.20231 0.18475 0.03893 0.11578 0.14806 0.18475 0.2924 0.18475 0.17644 0 0.24539 0.06492 0.29493 0.27791 0.07693 0.33063 0.29541 0.46162 0.66018 0.39579 0.20071-0.03625 0.28295-0.0057 0.33176 0.12409 0.07247 0.19238 0.58811 0.68029 0.71891 0.68029 0.12949 0 0.68649 0.55371 0.68649 0.68251 0 0.06276 0.08807 0.20328 0.19571 0.31235 0.1076 0.10904 0.19572 0.25894 0.19572 0.33304 0 0.07408 0.03304 0.14858 0.07339 0.16552 0.17388 0.07294 0.51469 0.64511 0.52511 0.88154 0.0065 0.15621 0.02897 0.19408 0.05609 0.09615 0.05242-0.1895 0.14172-0.20438 0.30442-0.05088 0.09135 0.08626 0.11743 0.08626 0.11743 0 0-0.06103 0.0633-0.1109 0.14059-0.1109 0.08702 0 0.15226 0.11421 0.17124 0.30024l0.03068 0.30022 0.82868 0.02723c0.47959 0.01576 0.85743 0.07107 0.89695 0.1314 0.08743 0.13355 1.9443-0.07123 2.4099-0.26583 0.17552-0.07337 0.36267-0.10791 0.4159-0.07695 0.05321 0.03109 0.09672 0.01009 0.09672-0.04715 0-0.05703 0.07707-0.09444 0.17126-0.08312 0.27768 0.03325 0.70946-0.11176 0.70946-0.23828 0-0.0801 0.16812-0.11707 0.53301-0.11707 0.46542 0 0.53819 0.02493 0.57382 0.1963 0.03945 0.18944 0.04129 0.18904 0.05414-0.01149 0.0079-0.11434 0.07627-0.20784 0.1533-0.20784 0.07707 0 0.15907 0.09357 0.18239 0.20784 0.03106 0.1523 0.04601 0.12854 0.0557-0.08869 0.01179-0.26774 0.05373-0.3065 0.42923-0.39934 0.22874-0.05659 0.59203-0.18303 0.80733-0.28109 0.21528-0.09802 0.53236-0.17816 0.7046-0.17802 0.18544 1.86e-4 0.34889-0.06005 0.40072-0.14741 0.12228-0.20625 2.0327-0.15768 2.1751 0.05532 0.05098 0.07623 0.09332 0.48152 0.09423 0.90068 0.0012 0.58743-0.02948 0.7621-0.1337 0.7621-0.07433 0-0.2624 0.1228-0.41789 0.273-0.33104 0.31962-0.88588 0.5584-1.2975 0.5584-0.18522 0-0.34375 0.07093-0.43568 0.19477-0.07955 0.10705-0.19208 0.16703-0.2502 0.13312-0.06199-0.03611-0.10564 0.0129-0.10564 0.11937 0 0.14725-0.06775 0.18097-0.36371 0.18097-0.20004 0-0.37986 0.04572-0.39958 0.1016-0.0198 0.05588-0.07813 0.1016-0.12988 0.1016-0.05165 0-0.21316 0.10519-0.35882 0.23382-0.14566 0.12868-0.36233 0.25745-0.4815 0.28632-0.11913 0.02881-0.24324 0.13155-0.2757 0.22806-0.03251 0.09658-0.12346 0.17557-0.2023 0.17557-0.07877 0-0.16861 0.06234-0.19959 0.13857-0.03093 0.07623-0.13969 0.13857-0.24158 0.13857-0.11101 0-0.18539 0.06477-0.18561 0.16167-5.91e-4 0.24782-0.37764 0.77608-0.59169 0.82893-0.10498 0.02593-0.1908 0.08383-0.1908 0.12868 0 0.04485-0.1101 0.08168-0.24465 0.08168-0.17657 0-0.24464 0.04973-0.24464 0.17853 0 0.09817-0.08782 0.20483-0.19514 0.23699-0.10734 0.0321-0.26824 0.12754-0.35759 0.21181-0.08938 0.08439-0.47492 0.29986-0.85683 0.47893-0.38191 0.17908-0.70259 0.38793-0.71264 0.46415-0.11756 0.89245-0.15176 1.0161-0.28132 1.0161-0.07746 0-0.14079 0.08312-0.14079 0.18475 0 0.10261 0.06526 0.18475 0.14679 0.18475 0.14227 0 0.16531 0.13685 0.18959 1.1267 0.0039 0.13699 0.06121 0.3012 0.12844 0.36489 0.14054 0.13298 0.16832 1.095 0.03158 1.095-0.15274 0-0.1709 0.30734-0.0367 0.62058 0.17039 0.39769 0.16218 0.82508-0.01718 0.89002-0.12516 0.04528-0.12242 0.08857 0.01993 0.32284 0.21549 0.35444 0.08336 0.9403-0.24241 1.0752-0.23921 0.09902-0.3011 0.32451-0.08911 0.32451 0.28566 0 0.49995 1.0301 0.26115 1.2556-0.0641 0.06062-0.0587 0.18743 0.016 0.37436 0.11756 0.29413 0.1034 0.35178-0.20507 0.83049-0.25578 0.39695-0.28366 0.94183-0.06435 1.2571 0.12661 0.18197 0.16022 0.35115 0.11926 0.60044-0.03133 0.1909-0.07746 0.47179-0.10236 0.62422-0.09279 0.56739-0.2949 1.2471-0.37088 1.2471-0.04325 0-0.0785 0.10388-0.0785 0.23094 0 0.19501-0.04562 0.23094-0.29358 0.23094h-0.29356v0.648c0 0.60666-0.01718 0.65822-0.2694 0.8083-0.18858 0.11221-0.25993 0.22266-0.23784 0.36814 0.02124 0.13986-0.01861 0.20785-0.12201 0.20785-0.08455 0-0.15359 0.04154-0.15359 0.09242s0.06605 0.09242 0.14679 0.09242c0.19961 0 0.20786 0.94566 0.0092 1.101-0.0755 0.05904-0.16691 0.21922-0.20321 0.35579-0.0363 0.13656-0.18554 0.35311-0.33161 0.48119-0.14608 0.12811-0.33979 0.34416-0.43046 0.48019-0.0907 0.13599-0.26503 0.26073-0.38746 0.27712-0.13854 0.01848-0.27802 0.14272-0.36937 0.32879-0.08074 0.16445-0.21682 0.32101-0.30237 0.34794-0.17346 0.05461-0.33721 0.3305-0.4267 0.71891-0.03421 0.1485-0.1517 0.29048-0.27786 0.33576-0.15105 0.05417-0.25603 0.2106-0.33978 0.50612-0.16394 0.57868-0.15383 0.67992 0.07484 0.74841 0.18114 0.05431 0.1929 0.12195 0.15577 0.89621-0.02215 0.46063-0.08598 0.8642-0.14186 0.89681-0.05885 0.03425-0.06723 0.11191-0.01993 0.1842 0.04496 0.06864 0.12883 0.09743 0.18638 0.06377 0.0578-0.03367 0.17228 0.06248 0.25558 0.21452 0.20028 0.36559 0.19037 0.46948-0.04482 0.46948-0.16513 0-0.19562 0.06133-0.19507 0.39261 3.94e-4 0.23628 0.07811 0.50295 0.19507 0.66973 0.10694 0.15243 0.19472 0.40616 0.19507 0.56388 3.8e-4 0.17717 0.0941 0.38194 0.24528 0.53592 0.25562 0.26037 0.2608 0.27847 0.29319 1.0249 0.01044 0.25404 0.10983 0.62816 0.21947 0.8314 0.1097 0.20322 0.22212 0.52973 0.24988 0.72553 0.02778 0.19582 0.0987 0.40159 0.15772 0.45726 0.1312 0.12381 0.14368 0.89568 0.01456 0.89568-0.05582 0-0.05098 0.11336 0.01179 0.28435 0.07535 0.20424 0.07458 0.34732-0.0025 0.50806-0.10183 0.21106-0.15489 0.22374-0.93528 0.22374-0.72558-3.3e-5 -0.83449-0.02153-0.88603-0.17481zm-17.96-7.6926c0-0.04241 0.08808-0.07695 0.19572-0.07695 0.1076 0 0.19572 0.04155 0.19572 0.09242 0 0.05088 0.04404 0.09242 0.09791 0.09242s0.09791-0.06519 0.09791-0.1448c0-0.10273 0.05689-0.12782 0.19571-0.08611 0.1076 0.03224 0.19606 0.02465 0.19648-0.01692 9.97e-4 -0.09787 0.46224-0.30048 0.53264-0.23402 0.02961 0.02795 0.0582 0.15813 0.06356 0.28937l0.0092 0.23865 0.0675-0.22888c0.05335-0.1809 0.13849-0.23323 0.40614-0.24974 0.18624-0.01149 0.52253-0.04241 0.7473-0.06865 0.27143-0.03167 0.42496-0.01009 0.4571 0.06506 0.02661 0.06204 0.0519 0.02436 0.0561-0.08383 0.01179-0.30028 0.25957-0.45743 0.47256-0.29975 0.09423 0.06979 0.19444 0.15576 0.22277 0.19119 0.0675 0.08439 0.21606-0.01992 0.34672-0.24338 0.0751-0.12839 0.36523-0.2372 1.0275-0.38515 1.4036-0.31359 1.6076-0.36915 1.9539-0.53222 0.17604-0.08296 0.37937-0.15073 0.45184-0.15073 0.07247 0 0.13176-0.05402 0.13176-0.11994 0-0.06607 0.18383-0.22188 0.40849-0.34641 0.22468-0.12452 0.52193-0.33364 0.66055-0.4647 0.13862-0.13112 0.39378-0.26484 0.56701-0.29733 0.37497-0.07035 0.71253-0.36274 0.71253-0.61724 0-0.29685-0.30377-0.92564-0.4472-0.92564-0.07274 0-0.19606-0.19743-0.27393-0.43879-0.07785-0.24132-0.21135-0.59262-0.29666-0.78065-0.08545-0.18845-0.16499-0.6548-0.17713-1.0392-0.0118-0.38355-0.05689-0.69737-0.09947-0.69737-0.22219 0-0.65997-0.55135-0.72022-0.90709-0.03604-0.2124-0.1038-0.38619-0.15077-0.38619-0.04692 0-0.08532-0.12466-0.08532-0.27714 0-0.15241-0.03368-0.27712-0.07471-0.27712-0.13326 0-0.5382-0.913-0.48698-1.0979 0.03447-0.12424-0.0092-0.19397-0.14131-0.2266-0.16773-0.04141-0.18789-0.11836-0.16523-0.63151 0.02424-0.54903-0.10826-1.0001-0.29375-1.0001-0.13386 0-0.30203-0.44505-0.36782-0.97342-0.0346-0.27754-0.10682-0.50461-0.16069-0.50461-0.06226 0-0.07446-0.24475-0.03342-0.6715 0.05439-0.5665 0.03354-0.7319-0.13328-1.0579-0.10879-0.21251-0.19776-0.42995-0.19776-0.48321 0-0.0533-0.04325-0.09686-0.09607-0.09686s-0.12333-0.10261-0.15664-0.22813c-0.03632-0.13628-0.26345-0.35611-0.56455-0.54609-0.27714-0.17488-0.60064-0.40436-0.71891-0.50994-0.11822-0.10561-0.23789-0.15703-0.26587-0.11435-0.02792 0.04269-0.56972 0.19043-1.2039 0.32821-0.63418 0.13785-1.3512 0.30757-1.5934 0.3773-0.7792 0.2243-1.0763 0.25819-1.0779 0.12296-0.0012-0.09773-0.01926-0.09645-0.08794 0.0057-0.04757 0.07093-0.15698 0.10347-0.24314 0.07224-0.09987-0.03611-0.15666-0.0071-0.15666 0.07896 0 0.22415-0.29253 0.1549-0.30493-0.07221-0.0092-0.15641-0.02242-0.16783-0.05609-0.04614-0.02463 0.08883-0.10432 0.16167-0.17718 0.16167-0.07287 0-0.15258-0.0728-0.1772-0.16167-0.02463-0.08883-0.0498-0.02651-0.0561 0.13857-0.01044 0.2826-0.1719 0.395-0.33953 0.23676-0.11888-0.11221-0.44501-0.09357-0.49455 0.02822-0.03015 0.07423 0.0052 0.09888 0.09567 0.06606 0.11613-0.04199 0.11101 0.0014-0.02621 0.2274-0.15288 0.25147-0.24164 0.28952-0.88658 0.38007-0.39418 0.05532-0.94609 0.1019-1.2265 0.10347-0.86269 0.0044-1.9638 0.17171-2.0458 0.31005-0.07129 0.12038-0.52785 0.29003-0.69021 0.25652-0.04038-0.0086-0.07339 0.02006-0.07339 0.06305 0 0.14896-0.36616 0.47602-0.5329 0.47602-0.09214 0-0.34132 0.17084-0.55384 0.37964-0.2736 0.26883-0.44275 0.36572-0.57948 0.33196-0.1696-0.04184-0.19308-4.59e-4 -0.19308 0.34077 0 0.32751-0.06146 0.44876-0.39143 0.77299-0.27328 0.26847-0.39144 0.46551-0.39144 0.65279 0 0.14752-0.07707 0.36786-0.17125 0.4896-0.27813 0.35952-0.41793 0.5785-0.47908 0.7504-0.03158 0.08883-0.09646 0.16167-0.14395 0.16167-0.04758 0-0.0865 0.10388-0.0865 0.23094 0 0.12696-0.03918 0.23094-0.08702 0.23094s-0.11585 0.1455-0.15122 0.32332c-0.03539 0.17783-0.1063 0.32332-0.15768 0.32332-0.05138 0-0.09346 0.10146-0.09346 0.22549 0 0.12409-0.04469 0.25157-0.09934 0.28344-0.16488 0.09615-0.34706 0.60642-0.47797 1.3386-0.1945 1.0879-0.20109 1.1085-0.35421 1.1085-0.1004 0-0.14492 0.0993-0.14492 0.32332 0 0.17783 0.04404 0.32332 0.09791 0.32332 0.14675 0 0.11874 0.20072-0.08454 0.60619-0.10026 0.20007-0.20959 0.6226-0.2429 0.93895-0.06056 0.57509-0.06056 0.57527 0.33448 0.96721 0.33136 0.32881 0.44746 0.38775 0.7202 0.36557 0.23719-0.01934 0.4727 0.06262 0.87067 0.30297 0.30004 0.18118 0.65565 0.32941 0.79026 0.32941 0.37979 0 0.74324 0.19322 0.74324 0.39511 0 0.13757 0.04862 0.1687 0.20345 0.1304 0.14434-0.03569 0.18868-0.01434 0.1526 0.07479-0.02792 0.06878 0.01313 0.17477 0.09018 0.23551 0.1152 0.09027 0.14097 0.07466 0.14097-0.0857 0-0.11606 0.06226-0.19606 0.15257-0.19606 0.08387 0 0.12543 0.04157 0.09214 0.09229-0.07353 0.11235 0.36488 0.08054 0.45252-0.03281 0.10668-0.13799 0.66986 0.03983 0.78608 0.24834 0.15816 0.28368 0.27216 0.33589 0.73716 0.33748 0.22557 7.46e-4 0.43734 0.04299 0.4706 0.09387 0.03329 0.05072 0.14734 0.09242 0.2535 0.09242 0.10616 0 0.21835 0.06234 0.24933 0.13857 0.03093 0.07623 0.14382 0.13857 0.25074 0.13857 0.11482 0 0.21626 0.07896 0.24776 0.19256 0.03945 0.14229 0.07391 0.16111 0.13218 0.07208 0.08886-0.13585 1.3566-0.14015 1.4528-0.0057 0.0308 0.04327 0.56232 0.12925 1.1813 0.19136 0.61895 0.06204 1.1376 0.14532 1.1526 0.18502 0.03644 0.09686 0.31532 0.09272 0.31532-0.0044zm-17.419-6.6704c0-0.67755 0.09555-1.0739 0.25874-1.0739 0.0945 0 0.11862-0.06706 0.0785-0.21783-0.07222-0.27152 0.17942-0.85752 0.47054-1.0959 0.21277-0.17419 0.2138-0.18333 0.03486-0.30687-0.13984-0.09658-0.17146-0.20081-0.13067-0.43119 0.10591-0.59882 0.24367-0.81122 0.53336-0.82266 0.1655-0.0071 0.20467-0.02723 0.10026-0.05301-0.09423-0.02322-0.17124-0.08082-0.17124-0.12782 0-0.13069-0.19224-0.10202-0.35649 0.05302-0.08074 0.07623-0.22911 0.13857-0.32974 0.13857-0.10066 0-0.21017 0.04156-0.24343 0.09242-0.03329 0.05072-0.16856 0.09242-0.30067 0.09242-0.13212 0-0.32902 0.05201-0.43758 0.1155-0.16269 0.09515-0.21379 0.09115-0.29075-0.02307-0.07196-0.10676-0.09371-0.10977-0.0949-0.01289-8.78e-4 0.07322-0.06251 0.10333-0.14828 0.07221-0.08074-0.02922-0.14679-0.01149-0.14679 0.04069 0 0.05159-0.18714 0.27229-0.41588 0.49042-0.38786 0.36984-0.40907 0.41595-0.31464 0.68399 0.0557 0.15807 0.13276 0.31713 0.17126 0.35346 0.11428 0.10791 0.07955 0.72829-0.04744 0.84819-0.09135 0.08627-0.06961 0.11091 0.09791 0.11091 0.11848 0 0.21529 0.04156 0.21529 0.09242 0 0.05072 0.06605 0.09242 0.14679 0.09242s0.14678 0.05961 0.14678 0.13241c0 0.0728 0.08807 0.15874 0.19582 0.19102 0.10773 0.03224 0.24465 0.14939 0.30434 0.26026 0.19144 0.35569 0.52509 0.80076 0.60075 0.80142 0.04038 3.59e-4 0.07339-0.22281 0.07339-0.49589zm32.782-2.063c0.13394-0.15267 0.12398-0.67363-0.01313-0.67363-0.14319 0-0.04285-0.76767 0.10643-0.81466 0.13765-0.04327 0.3298-0.39865 0.58232-1.0769 0.1114-0.29938 0.23691-0.56783 0.27874-0.59658 0.09069-0.06234 0.3175-0.8568 0.3175-1.1123 0-0.09888 0.0983-0.26632 0.21856-0.37203 0.18699-0.16445 0.21438-0.27172 0.18966-0.74262-0.02136-0.40652 0.0052-0.55033 0.09947-0.55018 0.09843 1.86e-4 0.12097-0.18344 0.09673-0.78521-0.01744-0.43197 0.0052-0.78541 0.04889-0.78541 0.0443 0 0.08061-0.59627 0.08061-1.3251 0-1.0384 0.03158-1.361 0.14591-1.4912 0.11114-0.12667 0.13961-0.37196 0.1194-1.0305-0.01952-0.63591 0.0052-0.86437 0.09384-0.86437 0.09358 0 0.09423-0.02465 0.0025-0.11091-0.06462-0.06104-0.11743-0.19818-0.11743-0.30491 0-0.29163-0.21024-0.65421-0.43578-0.75161-0.11022-0.04758-0.18928-0.13699-0.17583-0.19857 0.01351-0.06162-0.0384-0.11206-0.11521-0.11206-0.07679 0-0.15975-0.0728-0.18435-0.16167-0.02463-0.08883-0.0498-0.0057-0.0561 0.18475-0.0118 0.35303-0.20828 0.47467-0.37346 0.23094-0.10459-0.15426-0.397-0.16859-0.45645-0.02236-0.03211 0.07896 0.01677 0.10101 0.15038 0.06807 0.17402-0.04299 0.18372-0.02737 0.08047 0.12868-0.1497 0.2263-1.2495 0.77846-1.5437 0.77502-0.1228-0.0014-0.24691 0.05561-0.27582 0.12668-0.07694 0.18924-0.7021 0.17015-0.75645-0.02308-0.0236-0.08383-0.04797-0.01733-0.05426 0.1478-0.0092 0.23507-0.05385 0.30022-0.20706 0.30022-0.1076 0-0.19571-0.03267-0.19571-0.07251 0-0.03997-0.08807-0.07251-0.19573-0.07251-0.1076 0-0.19571 0.02636-0.19571 0.05846 0 0.18134-0.40591 0.43842-0.83179 0.52679-0.85639 0.17772-1.7125 0.49287-1.7125 0.63042 0 0.07166 0.06305 0.1304 0.1402 0.1304 0.07707 0 0.16814 0.08312 0.20231 0.18475 0.03421 0.1016 0.1038 0.18475 0.15482 0.18475 0.15122 0 0.48048 0.58057 0.48088 0.84789 1.99e-4 0.13613 0.06645 0.30979 0.14716 0.386 0.16624 0.15693 0.20802 1.0755 0.0489 1.0755-0.05387 0-0.09791 0.04156-0.09791 0.09242 0 0.05088 0.08807 0.09242 0.19571 0.09242 0.13149 0 0.19572 0.06163 0.19572 0.18765 0 0.10317 0.06382 0.2108 0.14199 0.23909 0.20116 0.0728 0.47861 0.80628 0.39692 1.0492-0.0502 0.14934 0.0025 0.2668 0.20574 0.45868 0.43642 0.41198 0.68961 1.9002 0.43206 2.5396-0.06199 0.15396-0.06199 0.23696 0 0.23696 0.05254 0 0.09542 0.10146 0.09542 0.22549 0 0.12395 0.04181 0.24985 0.09279 0.27964 0.0511 0.02982 0.17092 0.30244 0.26634 0.6059 0.09542 0.30346 0.2298 0.55174 0.29861 0.55174 0.08297 0 0.12503 0.13986 0.12503 0.41569 0 0.22864-0.04404 0.41571-0.09791 0.41571-0.05386 0-0.09791 0.06477-0.09791 0.14401 0 0.07925 0.04102 0.12008 0.09122 0.09085 0.0502-0.02922 0.15316 0.03038 0.22894 0.13255 0.07575 0.10216 0.16531 0.15975 0.19893 0.12796 0.11192-0.10561 0.71336 0.23183 0.85338 0.47881l0.13801 0.24342 0.1744-0.21621c0.09595-0.11893 0.21846-0.26643 0.2723-0.32779zm-35.221-6.3811c0.0052 0.07781 0.02673 0.07093 0.06291-0.01978 0.1304-0.32762 0.46277-0.66411 0.83122-0.84156 0.53063-0.25554 1.2282-0.44949 1.6211-0.45071 0.1828-5.58e-4 0.34356-0.05618 0.37322-0.12925 0.0287-0.0705 0.18186-0.15268 0.34046-0.18263 0.15859-0.02995 0.41978-0.19576 0.58043-0.36849 0.16066-0.17273 0.43543-0.36919 0.61059-0.4366 0.17518-0.06734 0.3633-0.17822 0.41808-0.24626 0.10394-0.12911 1.3699-0.33911 1.5192-0.25199 0.04718 0.02751 0.16461 0.01149 0.26098-0.03468 0.09634-0.04658 0.29076-0.13542 0.43195-0.19724 0.16459-0.07208 0.29468-0.23346 0.36252-0.44957 0.13913-0.44322 0.33641-1.741 0.31805-2.0922-0.0079-0.15242 0.02581-0.36028 0.0751-0.46189 0.04929-0.1016 0.16642-0.37181 0.26036-0.60044 0.2741-0.66719 0.86149-1.7954 0.97317-1.8692 0.06067-0.04013 0.03251-0.0685-0.06854-0.06921-0.26127-3e-3 -0.24241-0.85802 0.02451-1.1099 0.1076-0.1016 0.19572-0.2692 0.19572-0.37242 0-0.10317 0.06605-0.21158 0.14679-0.24082 0.10275-0.03725 0.14678-0.18861 0.14678-0.50517 0-0.3402 0.03631-0.452 0.14679-0.452 0.08074 0 0.14679-0.06535 0.14679-0.14516 0-0.07982 0.06645-0.2079 0.14768-0.28457 0.08126-0.07667 0.11979-0.18208 0.08572-0.23419-0.09568-0.14618 0.17204-0.8141 0.32633-0.8141 0.07535 0 0.1097-0.04154 0.07641-0.09242-0.03329-0.05072 0.0079-0.09242 0.09199-0.09242 0.11049 0 0.15257-0.09357 0.15257-0.3399 0-0.36069 0.37617-1.5327 0.50861-1.5846 0.04325-0.01692 0.0785-0.11793 0.0785-0.22439 0-0.10646 0.05386-0.33408 0.11952-0.50578 0.08782-0.22909 0.1659-0.30077 0.29356-0.26924 0.13728 0.03381 0.174-0.01434 0.174-0.22554 0-0.14767-0.04889-0.26848-0.10853-0.26848-0.10786 0-0.08571-0.28363 0.06841-0.87596 0.06815-0.26188 0.06317-0.26755-0.09882-0.11463-0.09371 0.08856-0.21092 0.13728-0.26041 0.10833-0.04954-0.02894-0.08991 0.02336-0.08991 0.11608 0 0.19304-0.79362 0.66424-1.4434 0.857-0.22874 0.06777-0.4159 0.15828-0.4159 0.20096 0 0.18316-0.19654 0.05804-0.20454-0.13026-0.0065-0.15604-0.03237-0.13054-0.10342 0.10246-0.05532 0.18143-0.17354 0.32973-0.28475 0.35718-0.10458 0.0258-0.19017 0.10418-0.19017 0.17416 0 0.16204-0.75485 0.68262-0.98982 0.68262-0.09763 0-0.22473 0.08312-0.28233 0.18475-0.05766 0.1016-0.18068 0.18475-0.27347 0.18475-0.09278 0-0.22374 0.08312-0.29097 0.18475-0.06723 0.1016-0.17952 0.18475-0.24954 0.18475-0.06998 0-0.27884 0.16534-0.464 0.36742-0.18518 0.20208-0.4086 0.36836-0.49651 0.36951-0.08794 0.0012-0.18439 0.0907-0.21439 0.19905-0.0401 0.14474-0.10799 0.18376-0.25607 0.14721-0.11074-0.02737-0.2015-0.0071-0.2015 0.04386 0 0.05144-0.06238 0.07107-0.13869 0.04342-0.07627-0.02766-0.16384 0.01149-0.19459 0.08726-0.03158 0.07767-0.01376 0.11292 0.04089 0.0811 0.05321-0.03109 0.09672 0.01149 0.09672 0.09373 0 0.14638-0.63928 0.78444-0.78594 0.78444-0.04049 0-0.09987 0.09902-0.13204 0.2199-0.03211 0.12094-0.14703 0.24177-0.25526 0.26848-0.10826 0.02679-0.19679 0.11479-0.19679 0.1958 0 0.08096-0.04129 0.14721-0.09161 0.14721-0.05033 0-0.1906 0.16628-0.3116 0.3695-0.12097 0.20322-0.25592 0.36951-0.29983 0.36951-0.04392 0-0.07982 0.06234-0.07982 0.13857s-0.08807 0.22171-0.19571 0.32332c-0.1076 0.1016-0.19572 0.28857-0.19572 0.41548 0 0.21777-0.67641 1.027-0.69189 0.82776-0.0039-0.04872-0.04181-0.0057-0.08455 0.09615-0.04364 0.10374-0.03657 0.20972 0.016 0.24171 0.10918 0.06636-0.19474 1.0946-0.36543 1.2363-0.0612 0.05088-0.16919 0.3522-0.24001 0.66974-0.07614 0.34125-0.17959 0.57734-0.25303 0.57734-0.07653 0-0.10432 0.07179-0.07247 0.18703 0.0696 0.25116-0.16529 1.0187-0.32999 1.0784-0.07235 0.02623-0.13157 0.12639-0.13157 0.22253 0 0.09615-0.04562 0.17487-0.10131 0.17487-0.06618 0-0.06213 0.06907 0.0118 0.19947 0.15001 0.26461 0.04548 1.0694-0.1679 1.2919-0.17801 0.18568-0.18857 0.26749-0.22484 1.7418-0.02975 1.2076-0.04351 1.1334 0.18868 1.0161 0.14823-0.07495 0.19759-0.07008 0.20345 0.01978zm13.297-4.6128c0.1316 0.03252 0.16262 5.57e-4 0.12648-0.12997-0.04298-0.15539 0.01389-0.17305 0.55845-0.17305 0.4237 0 0.85699-0.08354 1.4382-0.27714 0.45747-0.15241 0.92732-0.27702 1.0441-0.27688 0.28439 3.58e-4 1.539-0.26936 1.7523-0.37666 0.09346-0.04699 0.23118-0.08555 0.30607-0.08555 0.07483 0 0.19094-0.06234 0.25796-0.13857 0.06698-0.07623 0.18248-0.13857 0.25662-0.13857 0.07417 0 0.13481 0.06234 0.13481 0.13857 0 0.07623 0.03789 0.13857 0.08427 0.13857 0.0464 0 0.0633-0.10347 0.03774-0.22979-0.03368-0.16625 0.0039-0.24633 0.1359-0.28962 0.1004-0.03295 0.5127-0.18196 0.91636-0.33123 0.57341-0.21205 0.85503-0.26489 1.2876-0.24156 0.3045 0.01648 0.53308-0.0013 0.50798-0.03942-0.02517-0.03811 0.0039-0.06921 0.06501-0.06921 0.17591 0 0.39022-0.24706 0.39022-0.44984 0-0.10216 0.03984-0.20913 0.08847-0.23751 0.04875-0.02837 0.0052-0.25974-0.09791-0.51451-0.10248-0.2546-0.18632-0.54957-0.18632-0.65551 0-0.23827-0.26967-0.70162-0.56269-0.9668-0.1211-0.10963-0.22017-0.28456-0.22017-0.38882 0-0.10418-0.04784-0.20458-0.10616-0.22296-0.05845-0.01834-0.18775-0.35671-0.28748-0.75186-0.09974-0.39516-0.29036-0.89409-0.4236-1.1087-0.13326-0.21464-0.273-0.54489-0.31056-0.73387-0.03761-0.18898-0.11901-0.3436-0.18109-0.3436-0.1425 0-0.45256-0.66498-0.45256-0.97058 0-0.12667 0.05504-0.23181 0.12228-0.23363 0.06723-0.0014 0.0079-0.09544-0.13339-0.20785-0.36045-0.2883-0.54925-0.60756-0.61261-1.0359-0.03001-0.20324-0.10026-0.51472-0.15586-0.69222-0.1366-0.43567-0.12752-0.80656 0.02111-0.86319 0.07301-0.0278 0.05335-0.04957-0.04889-0.05387-0.10419-0.0044-0.17126-0.08054-0.17126-0.19434 0-0.11348-0.09423-0.22088-0.23995-0.27315-0.31708-0.11378-0.5781-0.59577-0.494-0.91212 0.03565-0.13413 0.03342-0.21427-0.0052-0.17806-0.0384 0.03624-0.14102 0.03023-0.22812-0.01289-0.15811-0.0791-0.45037 0.10276-0.33702 0.20969 0.02987 0.02808-0.03801 0.23105-0.1507 0.45084-0.11271 0.2198-0.23404 0.54414-0.26961 0.72074-0.03552 0.17661-0.09752 0.36267-0.13771 0.41348-0.0401 0.05088-0.10328 0.26579-0.14032 0.47774-0.03734 0.21391-0.13387 0.40949-0.21693 0.43956-0.0865 0.03139-0.12516 0.11434-0.09174 0.19679 0.03185 0.07838 0.01939 0.12008-0.02766 0.09272-0.04705-0.0275-0.10852 0.03281-0.13654 0.13384-0.02805 0.10116-0.01044 0.16055 0.03774 0.13212 0.21766-0.12696-0.07627 0.73315-0.30169 0.8829-0.12189 0.08096-0.17266 0.31871-0.09856 0.46189 0.03945 0.07623 0.03932 0.56216-9.2e-5 1.0799-0.05386 0.7071-0.12373 1.0245-0.2806 1.2755-0.11482 0.18376-0.20885 0.4149-0.20885 0.51361 0 0.09873-0.05504 0.18276-0.12228 0.18676-0.09791 0.0057-0.09791 0.01662 0 0.05387 0.13975 0.05316 0.17362 0.95496 0.0359 0.95496-0.04758 0-0.11834 0.09357-0.1574 0.20785-0.06711 0.19658-0.07458 0.19282-0.13786-0.06921l-0.06698-0.27713-0.06462 0.28969c-0.03552 0.15933-0.19879 0.4284-0.36284 0.59795-0.18408 0.19024-0.30232 0.4153-0.3089 0.58789-0.0052 0.1538-0.01689 0.53764-0.02451 0.85298-0.01044 0.45616-0.05361 0.60082-0.20844 0.70773-0.10707 0.07394-0.22815 0.11479-0.26911 0.09099-0.11756-0.0685-0.08675 0.32091 0.04049 0.51333 0.17121 0.25878-0.09489 0.87558-0.39526 0.9164-0.15063 0.02049-0.20591 0.07495-0.16873 0.16645 0.03105 0.07638 0.01313 0.11134-0.04142 0.07953-0.09527-0.05562-0.13617 0.12151-0.1017 0.44039 0.0092 0.08942-0.07653 0.27549-0.19147 0.41348-0.12176 0.14614-0.16528 0.26466-0.10419 0.28389 0.05766 0.0182 0.10996 0.10232 0.11625 0.18696 0.0092 0.12696 0.01953 0.12409 0.05779-0.0162 0.02989-0.10934 0.10892-0.15483 0.22089-0.12724zm14.623-4.8137c0.02752-0.04214 0.3054-0.13198 0.61739-0.19961 0.31198-0.06764 0.60907-0.15791 0.66021-0.20054 0.05112-0.04269 0.19058-0.07753 0.30987-0.07753 0.11926 0 0.2316-0.03511 0.24954-0.07795 0.01796-0.04299 0.19515-0.10231 0.39377-0.13183 0.28636-0.04271 0.37016-0.02177 0.40455 0.10101 0.02884 0.10287 0.04718 0.08154 0.05478-0.06361 0.0092-0.16859 0.05465-0.20792 0.20075-0.17187 0.10956 0.02708 0.2114-0.0071 0.24157-0.08154 0.0287-0.07065 0.11128-0.1284 0.18358-0.1284 0.07235 0 0.21678-0.07408 0.32111-0.16452 0.20405-0.17696 1.2279-0.57252 1.495-0.57756 0.31577-0.0057 0.81536-0.55119 0.50503-0.55119-0.05386 0-0.09883-0.05203-0.1-0.1155-0.0012-0.06348-0.14269-0.17783-0.3145-0.25404-0.21499-0.09544-0.3367-0.23019-0.39038-0.4325-0.05453-0.2055-0.14393-0.30277-0.29712-0.32332-0.15497-0.02078-0.22799-0.10202-0.24945-0.27729-0.0232-0.18915-0.09856-0.26206-0.31809-0.30757-0.3454-0.07164-1.0899-0.77098-1.0376-0.97465 0.02477-0.09659-0.02923-0.14258-0.16302-0.13857-0.11992 3e-3 -0.22221-0.06807-0.25519-0.17884-0.03552-0.11937-0.15641-0.19602-0.34143-0.21659-0.25497-0.02838-1.0316-0.50431-1.1163-0.68407-0.01796-0.03811-0.092-0.06921-0.16467-0.06921-0.07261 0-0.15701-0.07423-0.18754-0.16509-0.03054-0.09085-0.1546-0.17171-0.27571-0.1798-0.46349-0.03096-0.85627-0.12882-0.85627-0.21355 0-0.04856-0.05151-0.08827-0.11455-0.08827-0.06305 0-0.18414-0.05517-0.26911-0.12266-0.08494-0.0675-0.33495-0.17115-0.55553-0.23045-0.22058-0.05933-0.52009-0.21197-0.66558-0.33926-0.1455-0.12724-0.30773-0.23144-0.36051-0.23144-0.05282 0-0.13201-0.092-0.17606-0.20436-0.0612-0.15612-0.16439-0.20714-0.43721-0.21608-0.34583-0.01149-0.46021 0.07221-0.25926 0.1895 0.05387 0.03139 0.09791 0.38719 0.09791 0.79066 0 0.58263 0.02948 0.73355 0.14334 0.73355 0.30705 0 0.48485 0.84807 0.22852 1.09-0.09135 0.08627-0.08585 0.11134 0.02452 0.1132 0.07798 0.0013 0.22664 0.17799 0.33024 0.39261 0.10355 0.21462 0.2853 0.51492 0.40378 0.66735 0.11848 0.15243 0.266 0.42631 0.32779 0.60864 0.06186 0.18233 0.2233 0.47331 0.35891 0.64664 0.16373 0.20927 0.22805 0.38494 0.19147 0.52296-0.03893 0.14715-0.0118 0.20785 0.09358 0.20785 0.08177 0 0.14866 0.03524 0.14866 0.07825 0 0.04299 0.08715 0.17309 0.19363 0.28902 0.26249 0.28569 0.34641 0.77208 0.19337 1.1208-0.07458 0.16998-0.08807 0.30853-0.03368 0.34487 0.05006 0.03339 0.14421 0.17507 0.20923 0.31478 0.11756 0.25255 0.26089 0.32385 0.35674 0.17744z" fill="#e6cb00" stroke-width=".095078"/>
   </g>
   <g fill="#e6cb00">
    <path d="m45 20a22.5 20 0 0 1-0.0233 0.91" opacity=".60129" stroke="#f3df49"/>
    <text transform="scale(1.0577 .94542)" x="2.0561638" y="79.847008" font-family="'Andale Mono'" font-size="47.361px" stroke-width=".84574" style="font-variant-caps:normal;font-variant-east-asian:normal;font-variant-ligatures:normal;font-variant-numeric:normal;line-height:1.25" xml:space="preserve"><tspan x="2.0561638" y="79.847008" font-family="'Andale Mono'" font-size="39.903px" stroke-width=".84574" style="font-variant-caps:normal;font-variant-east-asian:normal;font-variant-ligatures:normal;font-variant-numeric:normal">&lt;  &gt;</tspan></text>
   </g>
  </g>
 </g>
</svg>
